<!-- <svg width="145" height="82" viewBox="0 0 145 82" fill="none" xmlns="http://www.w3.org/2000/svg">
<path d="M73.8856 1.89258H15.0848C7.50662 1.89258 1.47217 7.92703 1.47217 15.5052V69.3943C1.47217 75.4287 6.38393 80.3405 12.4184 80.3405H23.7856C24.6276 72.201 31.3638 65.8859 39.6436 65.8859C47.9234 65.8859 54.7999 72.201 55.5016 80.3405H87.3579V26.4514V15.3648C87.4982 7.92703 81.3234 1.89258 73.8856 1.89258Z" stroke="#FFF9E7" stroke-width="2" stroke-miterlimit="10" stroke-linejoin="round"/>
<path d="M113.32 53.396C109.391 53.396 106.303 50.1683 106.303 46.3792V46.2389V42.4498V32.4859H113.601H136.756C132.125 27.1532 128.476 24.6271 117.671 19.7153H87.4983V80.2002H97.4622C98.3042 72.0607 105.04 65.7456 113.32 65.7456C121.6 65.7456 128.336 72.2011 129.178 80.3405H133.248C138.581 80.3405 143.071 75.9901 143.071 70.517V53.396H113.601H113.32Z" stroke="#FFF9E7" stroke-width="2" stroke-miterlimit="10" stroke-linejoin="round"/>
<path d="M136.756 32.4858H106.303V46.0984C106.303 50.1682 109.531 53.3959 113.601 53.3959H143.071V51.9926C143.071 45.5371 140.545 39.643 136.756 32.4858Z" stroke="#FFF9E7" stroke-width="2" stroke-miterlimit="10" stroke-linejoin="round"/>
</svg> -->

<svg width="152" height="121" viewBox="0 0 152 121" fill="none" xmlns="http://www.w3.org/2000/svg">
<path d="M77.8856 21.8926H19.0848C11.5066 21.8926 5.47217 27.927 5.47217 35.5052V89.3943C5.47217 95.4287 10.3839 100.34 16.4184 100.34H27.7856C28.6276 92.201 35.3638 85.8859 43.6436 85.8859C51.9234 85.8859 58.7999 92.201 59.5016 100.34H91.3579V46.4514V35.3648C91.4982 27.927 85.3234 21.8926 77.8856 21.8926Z" stroke="#FFF9E7" stroke-width="2" stroke-miterlimit="10" stroke-linejoin="round"/>
<path d="M117.32 73.396C113.391 73.396 110.303 70.1683 110.303 66.3792V66.2389V62.4498V52.4859H117.601H140.756C136.125 47.1532 132.476 44.6271 121.671 39.7153H91.4983V100.2H101.462C102.304 92.0607 109.04 85.7456 117.32 85.7456C125.6 85.7456 132.336 92.2011 133.178 100.341H137.248C142.581 100.341 147.071 95.9901 147.071 90.517V73.396H117.601H117.32Z" stroke="#FFF9E7" stroke-width="2" stroke-miterlimit="10" stroke-linejoin="round"/>
<path d="M140.756 52.4858H110.303V66.0984C110.303 70.1682 113.531 73.3959 117.601 73.3959H147.071V71.9926C147.071 65.5371 144.545 59.643 140.756 52.4858Z" stroke="#FFF9E7" stroke-width="2" stroke-miterlimit="10" stroke-linejoin="round"/>
<path d="M43.6437 113.813C50.2316 113.813 55.5722 108.472 55.5722 101.884C55.5722 95.2962 50.2316 89.9556 43.6437 89.9556C37.0557 89.9556 31.7151 95.2962 31.7151 101.884C31.7151 108.472 37.0557 113.813 43.6437 113.813Z" stroke="#FFF9E7" stroke-width="2" stroke-miterlimit="10" stroke-linejoin="round"/>
<path d="M117.18 113.813C123.768 113.813 129.108 108.472 129.108 101.884C129.108 95.2962 123.768 89.9556 117.18 89.9556C110.592 89.9556 105.251 95.2962 105.251 101.884C105.251 108.472 110.592 113.813 117.18 113.813Z" stroke="#FFF9E7" stroke-width="2" stroke-miterlimit="10" stroke-linejoin="round"/>
</svg>

