<svg width="20" height="20" viewBox="0 0 20 20" fill="none" xmlns="http://www.w3.org/2000/svg">
<g clip-path="url(#clip0_1_133)">
<path d="M0 3.27956C0.0307893 3.16839 0.0594912 3.05723 0.0928897 2.94658C0.353816 2.08648 1.12668 1.48211 2.02531 1.43566C2.11611 1.43096 2.20744 1.42835 2.29876 1.42835C5.04579 1.42835 7.79282 1.42783 10.5399 1.42887C10.6568 1.42887 10.7768 1.42783 10.8895 1.45236C11.2141 1.52282 11.4416 1.84014 11.4228 2.17625C11.4035 2.52488 11.1405 2.81036 10.8008 2.84637C10.7105 2.85577 10.6187 2.85264 10.5279 2.85264C7.76778 2.85264 5.0077 2.85264 2.24762 2.85316C1.83692 2.85316 1.55251 3.03374 1.46484 3.36515C1.43249 3.48832 1.43196 3.62297 1.43196 3.75188C1.4304 6.62289 1.4304 9.49391 1.4304 12.3649C1.4304 14.1357 1.4304 15.9066 1.4304 17.6774C1.4304 17.775 1.4304 17.8731 1.44344 17.9697C1.48258 18.2713 1.73412 18.5192 2.03731 18.5563C2.12759 18.5673 2.21892 18.5683 2.31024 18.5683C6.48297 18.5688 10.6552 18.5688 14.8279 18.5683C14.9187 18.5683 15.0106 18.5673 15.1008 18.5568C15.4192 18.5192 15.6749 18.2557 15.7036 17.9358C15.7119 17.8455 15.7104 17.7536 15.7104 17.6628C15.7104 15.3972 15.7098 13.1316 15.713 10.866C15.713 10.7313 15.7255 10.5899 15.7667 10.4631C15.8612 10.1719 16.1597 9.98502 16.4644 10.0007C16.7734 10.0169 17.039 10.2293 17.1115 10.5315C17.1371 10.6374 17.1434 10.7501 17.1439 10.8597C17.1455 13.1514 17.146 15.4431 17.1449 17.7343C17.1449 18.9169 16.4822 19.728 15.3232 19.9707C15.3054 19.9743 15.2898 19.9889 15.2736 19.9989H1.87502C1.83901 19.9868 1.80404 19.9696 1.76699 19.9628C1.1606 19.8501 0.671624 19.5437 0.355903 19.0177C0.193085 18.7473 0.115851 18.4243 0 18.1247C0 13.1765 0 8.22776 0 3.27956Z" fill="#3EC9BD"/>
<path d="M20 2.82457C19.9885 3.49 19.7182 4.14656 19.177 4.68777C16.0663 7.79991 12.9555 10.9115 9.83952 14.0184C9.72471 14.1333 9.56763 14.2251 9.41369 14.2778C8.05426 14.7392 6.69066 15.1885 5.32915 15.6431C5.06927 15.7298 4.81721 15.7433 4.58394 15.5753C4.30684 15.3759 4.22595 15.0633 4.35224 14.6833C4.72954 13.5492 5.1345 12.423 5.47683 11.2784C5.67566 10.6146 6.0206 10.0911 6.51219 9.60466C9.43665 6.71173 12.3397 3.79688 15.2449 0.884638C15.8106 0.317325 16.4759 -0.00155998 17.2796 5.73863e-06C18.7762 0.00261527 19.9958 1.2291 20 2.82457ZM6.13489 13.8582C6.19908 13.842 6.23561 13.8352 6.27057 13.8238C7.11493 13.5414 7.95929 13.2606 8.80156 12.9725C8.8887 12.9428 8.96959 12.8765 9.03639 12.8097C12.0485 9.80038 15.0586 6.78897 18.0686 3.77757C18.1511 3.69511 18.2335 3.61004 18.3029 3.51609C18.6025 3.11005 18.6557 2.66382 18.4522 2.20819C18.2455 1.74526 17.8734 1.48431 17.3615 1.44203C16.9038 1.40394 16.549 1.60278 16.2348 1.91749C13.4742 4.68099 10.7235 7.45493 7.93945 10.1944C7.32367 10.8004 6.85244 11.4386 6.64943 12.2862C6.52315 12.8123 6.31545 13.3191 6.13645 13.8587L6.13489 13.8582Z" fill="#3EC9BD"/>
</g>
<defs>
<clipPath id="clip0_1_133">
<rect width="20" height="20" fill="white"/>
</clipPath>
</defs>
</svg>
