<svg width="252" height="48" viewBox="0 0 252 48" fill="none" xmlns="http://www.w3.org/2000/svg">
<g clip-path="url(#clip0_1_1037)">
<path d="M226.274 25.0792C206.394 20.4339 185.079 17.53 165.03 22.9071C160.031 24.2456 155.204 26.1445 150.602 28.4926C146.154 30.7666 141.902 33.3926 137.543 35.8288C133.282 38.2093 128.904 40.4231 124.199 41.8079C119.98 43.0491 115.607 43.5308 111.215 43.327C102.618 42.9195 93.9832 39.7562 87.3812 34.2402C86.1337 33.1981 84.9236 32.0217 83.7929 30.7388C87.7877 27.5987 91.0583 23.6481 92.9179 18.7712C94.6139 14.3251 94.6653 8.90633 92.189 4.72416C90.9555 2.64002 89.0165 0.875453 86.615 0.254843C84.0732 -0.398186 81.3306 0.291895 79.2094 1.76932C70.7992 7.63269 71.6496 19.3502 75.8593 27.4227C76.2612 28.1915 76.705 28.9372 77.1676 29.6643C75.864 30.4332 74.5137 31.1371 73.1214 31.7716C64.2721 35.801 54.2827 36.8755 44.6484 36.982C33.3041 37.107 21.9925 35.838 10.6482 36.1205C7.86817 36.19 5.0975 36.3614 2.33151 36.6485C1.07466 36.7782 -0.00463867 37.6165 -0.00463867 38.9642C-0.00463867 40.312 1.06532 41.2382 2.33151 41.2799C3.24728 41.3124 4.16772 41.3448 5.08349 41.3726C5.68621 41.3911 6.16746 41.2197 6.52722 40.9372C27.8702 39.6543 49.8721 44.9341 70.561 37.7462C73.7849 36.6254 76.9713 35.1896 79.9242 33.4019C84.5405 38.8068 90.8434 42.7759 97.5154 45.2305C106.608 48.5698 116.905 48.9542 126.171 46.0549C136.314 42.8778 144.869 36.4308 154.33 31.8133C173.856 22.2865 196.591 23.7037 217.332 27.872C219.906 28.3907 222.471 28.9557 225.032 29.5532C227.956 30.234 229.204 25.7739 226.274 25.0885V25.0792ZM77.5133 13.1255C78.0647 9.7724 80.1999 5.19656 84.0452 4.64543C88.1708 4.0526 89.5305 9.67051 89.451 12.6809C89.3436 16.8168 87.1897 20.7211 84.4844 23.7593C83.4098 24.9634 82.237 26.0472 80.9989 27.0337C78.3076 22.8469 76.719 17.9793 77.518 13.1255H77.5133Z" fill="#D2D8E2"/>
<path d="M236.423 30.1597C237.647 30.1597 238.815 29.0945 238.759 27.844C238.703 26.5935 237.731 25.5283 236.423 25.5283C235.198 25.5283 234.03 26.5935 234.086 27.844C234.142 29.0945 235.114 30.1597 236.423 30.1597Z" fill="#D2D8E2"/>
<path d="M243.043 30.1597C244.267 30.1597 245.435 29.0945 245.379 27.844C245.323 26.5935 244.351 25.5283 243.043 25.5283C241.819 25.5283 240.651 26.5935 240.707 27.844C240.763 29.0945 241.735 30.1597 243.043 30.1597Z" fill="#D2D8E2"/>
<path d="M249.664 30.1597C250.888 30.1597 252.056 29.0945 252 27.844C251.944 26.5935 250.972 25.5283 249.664 25.5283C248.44 25.5283 247.272 26.5935 247.328 27.844C247.384 29.0945 248.356 30.1597 249.664 30.1597Z" fill="#D2D8E2"/>
</g>
<defs>
<clipPath id="clip0_1_1037">
<rect width="252" height="48" fill="white"/>
</clipPath>
</defs>
</svg>
