<svg width="27" height="27" viewBox="0 0 27 27" fill="none" xmlns="http://www.w3.org/2000/svg">
<g clip-path="url(#clip0_1_2200)">
<path d="M0 3.67963C0.216924 3.18836 0.604993 3.0481 1.12336 3.04951C5.19139 3.06149 9.25942 3.05655 13.3274 3.05655C13.4408 3.05655 13.5542 3.05655 13.6585 3.05655C14.3064 1.07386 15.6016 -0.0813585 17.7202 0.00392613C19.6556 0.0821625 20.8141 1.23386 21.3896 3.05585C21.4846 3.05585 21.5889 3.05585 21.6938 3.05585C23.1609 3.05585 24.6286 3.05373 26.0957 3.05726C26.5288 3.05796 26.8366 3.28069 26.9577 3.65918C27.0683 4.00596 26.957 4.3908 26.6345 4.58181C26.464 4.6826 26.2408 4.73546 26.04 4.73758C24.5906 4.75027 23.1404 4.74463 21.691 4.74463C21.5945 4.74463 21.4987 4.74463 21.3853 4.74463C21.36 4.81159 21.3311 4.87361 21.3128 4.93775C20.8226 6.65965 19.3013 7.82968 17.5399 7.83813C15.7883 7.84659 14.2416 6.68009 13.7557 4.96101C13.6951 4.74604 13.581 4.74392 13.4148 4.74392C9.29393 4.74604 5.17308 4.7404 1.05222 4.75238C0.540197 4.75379 0.191569 4.57829 0 4.10323V3.68103L0 3.67963ZM17.5377 1.66733C16.2933 1.66381 15.2903 2.66044 15.2896 3.90024C15.2889 5.13722 16.2982 6.15077 17.53 6.14936C18.7484 6.14795 19.7612 5.14074 19.7704 3.92209C19.7795 2.68652 18.7745 1.67085 17.5385 1.66733H17.5377Z" fill="white"/>
<path d="M0.000216018 22.8853C0.188968 22.4067 0.5383 22.234 1.05103 22.2354C5.16414 22.2474 9.27724 22.2411 13.3896 22.2467C13.6037 22.2467 13.7045 22.1995 13.7679 21.9732C14.2256 20.3267 15.7906 19.1567 17.5168 19.149C19.2431 19.1412 20.8228 20.3232 21.2968 21.9767C21.3208 22.0606 21.3447 22.1438 21.3729 22.2418C21.4863 22.2418 21.5912 22.2418 21.6961 22.2418C23.1815 22.2418 24.6669 22.2389 26.1515 22.2446C26.5783 22.246 26.9171 22.5399 26.9882 22.9424C27.0545 23.3173 26.8368 23.7226 26.4727 23.8558C26.3283 23.9087 26.1642 23.9263 26.0086 23.927C24.5676 23.932 23.1259 23.9298 21.6849 23.9298H21.3848C21.2975 24.1737 21.2306 24.419 21.1257 24.6459C20.5333 25.9238 19.5494 26.7041 18.157 26.9571C18.1148 26.9648 18.0753 26.9853 18.0338 27.0001H16.9795C16.9316 26.9832 16.8851 26.9592 16.8358 26.95C16.0744 26.8077 15.4096 26.475 14.844 25.9464C14.258 25.3987 13.8834 24.7263 13.6869 23.9305H13.3403C9.26809 23.9305 5.19512 23.9249 1.12287 23.9376C0.6038 23.939 0.221366 23.791 -0.000488281 23.3068V22.8846L0.000216018 22.8853ZM17.5267 25.3198C18.7656 25.3198 19.7741 24.3119 19.7699 23.0763C19.7657 21.8562 18.7599 20.8462 17.5408 20.8377C16.3097 20.8293 15.2941 21.8393 15.2898 23.0756C15.2856 24.3175 16.2843 25.3191 17.5274 25.3198H17.5267Z" fill="white"/>
<path d="M0 13.2823C0.204951 12.8002 0.569778 12.6339 1.08744 12.6417C2.50167 12.6635 3.91731 12.6494 5.33225 12.6494H5.61538C6.19149 10.4489 8.04732 9.55731 9.48479 9.56154C10.9258 9.56577 12.7365 10.4482 13.3289 12.6494H13.6359C17.749 12.6494 21.8614 12.6494 25.9745 12.6494C26.0802 12.6494 26.1872 12.6438 26.2901 12.6607C26.7141 12.7283 27.0225 13.1181 26.9972 13.5445C26.9725 13.9604 26.6366 14.3015 26.2154 14.3347C26.1189 14.3424 26.0224 14.3382 25.9252 14.3382C21.8297 14.3382 17.735 14.3382 13.6395 14.3382H13.3134C13.0619 15.3538 12.5224 16.1623 11.6681 16.7473C11.0047 17.2019 10.2645 17.4176 9.46014 17.4225C7.95999 17.4317 6.16332 16.459 5.61678 14.3382H3.96239C3.00454 14.3382 2.04599 14.3199 1.08885 14.3459C0.569778 14.36 0.207064 14.1852 0 13.7052V13.2831L0 13.2823ZM9.48057 15.7323C10.7222 15.7253 11.7146 14.7209 11.7097 13.4769C11.7047 12.2498 10.7068 11.2574 9.47564 11.2545C8.23889 11.2517 7.22681 12.261 7.22963 13.4952C7.23174 14.7301 8.24804 15.7394 9.48127 15.7323H9.48057Z" fill="white"/>
</g>
<defs>
<clipPath id="clip0_1_2200">
<rect width="27" height="27" fill="white"/>
</clipPath>
</defs>
</svg>
